<svg xmlns="http://www.w3.org/2000/svg" viewBox="3 -29 28.25 23">
  <path d="M 3 -6 C 5 -14 12 -29 14 -29 C 15 -29 16 -25 17 -23 C 18 -21 19 -21 20 -23 C 21 -25 23 -29 25 -29 C 27 -29 24 -15 29 -14 C 30 -14 30 -15 29 -16 C 31 -15 30 -13 29 -13 C 27 -13 25 -15 24 -19 Q 23 -21 22 -20 C 21 -19 20 -18 20 -18 C 18 -16 17 -17 16 -18 C 15 -19 15 -19 14 -20 Q 13 -21 12 -20 C 8 -16 5 -8 3 -6 M 29 -13 C 25 -13 23 -7 29 -6 C 32 -6 32 -9 29 -10 C 31 -9 30 -8 29 -8 C 27 -8 25 -11 29 -13" fill="#fff1f2"/>
</svg>